<svg id="3780" viewBox="0 0 1440 1150" xmlns="http://www.w3.org/2000/svg" xmlns:xlink="http://www.w3.org/1999/xlink"><defs><marker id="NONE" viewBox="0 0 10 10" refX="5" refY="5" markerWidth="1" markerHeight="1" orient="auto-start-reverse" markerUnits="strokeWidth"></marker><marker id="ROUND" viewBox="0 0 10 10" refX="5" refY="5" markerWidth="1" markerHeight="1" orient="auto-start-reverse" markerUnits="strokeWidth"><circle r="5" cx="5" cy="5" stroke="context-stroke" fill="context-fill"></circle></marker><marker id="SQUARE" viewBox="0 0 10 10" refX="0" refY="5" markerWidth="1" markerHeight="1" orient="auto-start-reverse" markerUnits="strokeWidth"><rect x="0" y="0" width="5" height="10" stroke="context-stroke" fill="context-fill"></rect></marker><marker id="ARROW_LINES" viewBox="0 0 10 10" refX="4" refY="5" markerWidth="10" markerHeight="10" orient="auto-start-reverse" markerUnits="strokeWidth"><path d="M3.3095 4.5L0.3255 1.457C0.1315 1.26 0.1355 0.942998 0.3315 0.749998C0.5295 0.556998 0.8455 0.559998 1.0385 0.756998L4.8575 4.65C5.0475 4.844 5.0475 5.156 4.8575 5.35L1.0385 9.243C0.8455 9.44 0.5285 9.443 0.3315 9.25C0.1345 9.057 0.1315 8.74 0.3255 8.543L3.3095 5.5V4.5Z"></path></marker><marker id="ARROW_EQUILATERAL" viewBox="0 0 10 10" refX="6.5" refY="5" markerWidth="6" markerHeight="6" orient="auto-start-reverse" markerUnits="strokeWidth"><path d="M8 5L0.5 9.33013L0.5 0.669873L8 5Z"></path></marker><marker id="TRIANGLE_FILLED" viewBox="0 0 10 10" refX="5" refY="5" markerWidth="6" markerHeight="6" orient="auto-start-reverse" markerUnits="strokeWidth"><path d="M-5.96244e-08 5L7.5 9.33013L7.5 0.669873L-5.96244e-08 5Z"></path></marker><marker id="CIRCLE_FILLED" viewBox="0 0 10 10" refX="5" refY="5" markerWidth="6" markerHeight="6" orient="auto-start-reverse" markerUnits="strokeWidth"><circle r="3.5" cx="5" cy="5"></circle></marker><marker id="DIAMOND_FILLED" viewBox="0 0 10 10" refX="5" refY="5" markerWidth="6" markerHeight="6" orient="auto-start-reverse" markerUnits="strokeWidth"><rect x="-0.000488281" y="5" width="7.07138" height="7.07138" transform="rotate(-45 -0.000488281 5)"></rect></marker></defs><g transform="matrix(1,0,0,1,0,0)"><g id="3780" opacity="1" style="mix-blend-mode:normal"><g><defs><clipPath id="3780_clipPath" x="-50%" y="-50%" width="200%" height="200%"><path d="M0,0h1440v0v1150v0h-1440v0v-1150z" fill="white" clip-rule="nonzero"></path></clipPath></defs><g clip-path="url(#3780_clipPath)"><path id="3780_fill_path" d="M0,0h1440v0v1150v0h-1440v0v-1150z" fill-rule="nonzero" fill="rgb(14, 13, 13)" fill-opacity="1" style="mix-blend-mode:NORMAL"></path><g transform="matrix(1,0,0,1,562.2813,341)"><g id="3786" opacity="1" style="mix-blend-mode:normal"><g><g><path id="3786_fill_path" d="M16.16607,2.31707h61.9902v47.31708c0,27.68293 -9.96705,40.36585 -39.13891,40.36585c-26.13312,0 -39.01736,-14.63414 -39.01736,-36.46341c0,-0.48781 0,-10.73171 0,-11.82927h32.45369c0,2.07317 0,9.75609 0,10.2439c0,5 2.91718,7.68293 6.56367,7.68293c4.13268,0 6.68522,-2.43903 6.68522,-7.68293v-20.60975h-29.53651zM152.03076,2.31707h32.33215v43.90244c0,28.90244 -15.43676,43.78048 -45.45947,43.78048c-30.14425,0 -45.58103,-14.87804 -45.58103,-43.78048v-43.90244h32.45369v43.90244c0,9.63415 5.46973,13.41463 13.12734,13.41463c7.65761,0 13.12732,-3.78049 13.12732,-13.41463zM243.29823,89.87805c-32.08905,0 -45.58102,-17.19512 -45.58102,-31.09756c8.87311,0 30.63046,0 30.63046,0c0,5.85366 6.56366,7.68293 12.03339,7.68293c6.19902,0 8.99466,-1.46341 8.99466,-4.26829c0,-3.90244 -10.08862,-4.7561 -19.56947,-7.31707c-20.05565,-5.60976 -28.80719,-11.34146 -28.80719,-25.4878c0,-28.04878 27.83481,-29.39025 41.69144,-29.39025c17.50312,0 39.50357,6.82927 39.50357,29.2683c-9.96705,0 -30.02271,0 -30.02271,0c0,-4.39025 -4.49734,-6.82927 -9.60242,-6.82927c-5.22663,0 -8.63,1.34146 -8.63,4.63415c0,4.87805 13.7351,6.21951 21.87891,8.17073c8.14381,1.82927 28.92877,4.14634 28.92877,25c0,24.39025 -19.56948,29.63414 -41.44838,29.63414zM382.57394,2.31707v29.0244h-28.07794v56.34146h-32.4537v-56.34146h-28.07788v-29.0244zM473.25739,27.92683h-44.9733v5.48781h41.44836v23.17073h-41.44836v5.60976h44.9733v25.4878h-77.30542v-85.36586h77.30542zM485.39047,31.34147v-29.0244" fill-rule="nonzero" fill="rgb(255, 255, 255)" fill-opacity="1" style="mix-blend-mode:NORMAL"></path></g></g></g></g><g transform="matrix(1,0,0,1,989.2813,462)"><g id="3791" opacity="0" style="mix-blend-mode:normal"><g><g><g style="mix-blend-mode:normal"><defs><linearGradient id="lk004nodx81zm4e0nfl" x1="19" y1="-2.786071589631257e-15" x2="19" y2="90.99999999999999" gradientUnits="userSpaceOnUse"><stop offset="0%" stop-opacity="1" stop-color="rgb(250, 181, 1)"></stop><stop offset="100%" stop-opacity="1" stop-color="rgb(236, 140, 1)"></stop></linearGradient></defs><path id="3791_fill_path" d="M14.88,64.824c6.624,0 12,5.28 12,11.904c0,6.624 -5.376,12 -12,12c-6.624,0 -12,-5.376 -12,-12c0,-6.624 5.376,-11.904 12,-11.904z" fill-rule="nonzero" fill="url(#lk004nodx81zm4e0nfl)"></path></g></g></g></g></g><g transform="matrix(1,0,0,1,575.2813,464)"><g id="3788" opacity="1" style="mix-blend-mode:normal"><g><g><path id="3788_fill_path" d="M88.14481,2.29133v28.7019h-27.93067v55.71545h-32.28349v-55.71545h-27.93066v-28.7019zM168.07517,2.29133h32.2835v84.41735h-32.2835v-27.85772h-34.339v27.85772h-32.28349v-84.41735h32.28349v27.85773h34.339zM292.39723,27.61653h-44.73744v5.42683h41.23098v22.91328h-41.23098v5.54743h44.73744v25.20461h-76.90002v-84.41735h76.90002zM355.73335,0c30.59072,0 51.26665,14.35095 51.26665,44.5c0,30.02846 -20.67592,44.5 -51.26665,44.5c-30.59072,0 -51.26668,-14.47154 -51.26668,-44.5c0,-30.14905 20.67595,-44.5 51.26668,-44.5zM355.73335,58.73035c10.15661,0 16.20218,-5.54743 16.20218,-14.23035c0,-8.68293 -6.04557,-14.35094 -16.20218,-14.35094c-10.15661,0 -16.20221,5.66802 -16.20221,14.35094c0,8.68293 6.04561,14.23035 16.20221,14.23035z" fill-rule="nonzero" fill="rgb(255, 255, 255)" fill-opacity="1" style="mix-blend-mode:NORMAL"></path></g></g></g></g><g transform="matrix(1,0,0,1,396,556.0001)"><g id="3793" opacity="0" style="mix-blend-mode:normal"><g><g><path id="3793_fill_path" d="M43.49228,1.2167l-19.15004,36.20962l19.15004,37.91343h46.98429l18.12789,-33.53777l-18.38445,-41.80198l41.87761,33.05273l-18.641,51.2788h7.91657l-0.25656,34.50991h-108.51895v-33.29525l8.42561,-0.24251l-21.02331,-47.87734z" fill-rule="nonzero" fill="rgb(255, 255, 255)" fill-opacity="1" style="mix-blend-mode:NORMAL"></path></g></g></g></g><g transform="matrix(1,0,0,1,401,203.9487)"><g id="3794" opacity="0" style="mix-blend-mode:normal"><g><g><g style="mix-blend-mode:normal"><defs><linearGradient id="lk004nohzhzxkr0z6v" x1="63.07354621582551" y1="4.7745539186869556e-15" x2="63.07354621582552" y2="155.9487" gradientUnits="userSpaceOnUse"><stop offset="0%" stop-opacity="1" stop-color="rgb(250, 181, 1)"></stop><stop offset="100%" stop-opacity="1" stop-color="rgb(219, 91, 1)"></stop></linearGradient></defs><path id="3794_fill_path" d="M51.72199,9.97908c0,0 11.92576,-22.45294 23.22439,0l51.83441,105.62889l-36.89718,-31.22868l-14.55444,-21.38706v35.9671l-11.87282,56.98935l-11.74658,-56.74683v-35.72457l-11.80369,20.90201l-39.90609,35.45342l51.72199,-109.85363l0.43573,-0.87839" fill-rule="nonzero" fill="url(#lk004nohzhzxkr0z6v)"></path></g></g></g></g></g></g></g></g></g><animateTransform href="#3786" attributeName="transform" type="translate" values="242.6953 45;242.6953 45;242.6953 45;242.6953 45" dur="5s" repeatCount="indefinite" calcMode="spline" keyTimes="0;0.16;0.32;1" keySplines="0.5 0.35 0.15 1;0.5 0.35 0.15 1;0.5 0.35 0.15 1" additive="sum" fill="freeze"></animateTransform><animateTransform href="#3786" attributeName="transform" type="scale" values="0 0;0 0;1 1;1 1" dur="5s" repeatCount="indefinite" calcMode="spline" keyTimes="0;0.16;0.32;1" keySplines="0.5 0.35 0.15 1;0.5 0.35 0.15 1;0.5 0.35 0.15 1" additive="sum" fill="freeze"></animateTransform><animateTransform href="#3786" attributeName="transform" type="translate" values="-242.6953 -45;-242.6953 -45;-242.6953 -45;-242.6953 -45" dur="5s" repeatCount="indefinite" calcMode="spline" keyTimes="0;0.16;0.32;1" keySplines="0.5 0.35 0.15 1;0.5 0.35 0.15 1;0.5 0.35 0.15 1" additive="sum" fill="freeze"></animateTransform><animate href="#3791" attributeName="opacity" values="0;0;1;1" dur="5s" repeatCount="indefinite" calcMode="spline" keyTimes="0;0.34;0.5;1" keySplines="0.5 0.35 0.15 1;0.5 0.35 0.15 1;0.5 0.35 0.15 1" additive="replace" fill="freeze"></animate><animateTransform href="#3788" attributeName="transform" type="translate" values="203.5 44.5;203.5 44.5;203.5 44.5;203.5 44.5" dur="5s" repeatCount="indefinite" calcMode="spline" keyTimes="0;0.24;0.4;1" keySplines="0.5 0.35 0.15 1;0.5 0.35 0.15 1;0.5 0.35 0.15 1" additive="sum" fill="freeze"></animateTransform><animateTransform href="#3788" attributeName="transform" type="scale" values="0 0;0 0;1 1;1 1" dur="5s" repeatCount="indefinite" calcMode="spline" keyTimes="0;0.24;0.4;1" keySplines="0.5 0.35 0.15 1;0.5 0.35 0.15 1;0.5 0.35 0.15 1" additive="sum" fill="freeze"></animateTransform><animateTransform href="#3788" attributeName="transform" type="translate" values="-203.5 -44.5;-203.5 -44.5;-203.5 -44.5;-203.5 -44.5" dur="5s" repeatCount="indefinite" calcMode="spline" keyTimes="0;0.24;0.4;1" keySplines="0.5 0.35 0.15 1;0.5 0.35 0.15 1;0.5 0.35 0.15 1" additive="sum" fill="freeze"></animateTransform><animateTransform href="#3793" attributeName="transform" type="translate" values="0 0;0 -118.84139999999996;0 -118.84139999999996" dur="5s" repeatCount="indefinite" calcMode="spline" keyTimes="0;0.16;1" keySplines="0.5 0.35 0.15 1;0.5 0.35 0.15 1" additive="sum" fill="freeze"></animateTransform><animate href="#3793" attributeName="opacity" values="0;1;1" dur="5s" repeatCount="indefinite" calcMode="spline" keyTimes="0;0.16;1" keySplines="0.5 0.35 0.15 1;0.5 0.35 0.15 1" additive="replace" fill="freeze"></animate><animateTransform href="#3794" attributeName="transform" type="translate" values="0 0;-2 140.0513;-2 140.0513" dur="5s" repeatCount="indefinite" calcMode="spline" keyTimes="0;0.16;1" keySplines="0.5 0.35 0.15 1;0.5 0.35 0.15 1" additive="sum" fill="freeze"></animateTransform><animate href="#3794" attributeName="opacity" values="0;1;1" dur="5s" repeatCount="indefinite" calcMode="spline" keyTimes="0;0.16;1" keySplines="0.5 0.35 0.15 1;0.5 0.35 0.15 1" additive="replace" fill="freeze"></animate></svg>